<?xml version="1.0" encoding="iso-8859-1"?>
<!-- Generator: Adobe Illustrator 19.0.0, SVG Export Plug-In . SVG Version: 6.00 Build 0)  -->
<svg version="1.1" id="Layer_1" xmlns="http://www.w3.org/2000/svg" xmlns:xlink="http://www.w3.org/1999/xlink" x="0px" y="0px"
	 viewBox="0 0 502.047 502.047" style="enable-background:new 0 0 502.047 502.047;" xml:space="preserve">
<path style="fill:#ACE8E6;" d="M484.021,314.589c0,94.767-104.314,121.368-232.992,121.368S18.023,409.364,18.023,314.589
	c0-94.783,104.322-171.615,232.999-171.615S484.021,219.806,484.021,314.589z"/>
<path style="fill:#8ED6D6;" d="M484.021,314.589c0,94.767-104.314,121.368-232.992,121.368S18.023,409.364,18.023,314.589
	c0-94.783,104.322-147.787,232.999-147.787S484.021,219.806,484.021,314.589z"/>
<path style="fill:#76C1BF;" d="M484.021,314.589c0,94.767-104.314,121.368-232.992,121.368S18.023,409.364,18.023,314.589
	c0-94.783,104.322-43.26,232.999-43.26S484.021,219.806,484.021,314.589z"/>
<g>
	<circle style="fill:#082856;" cx="158.941" cy="327.979" r="20.929"/>
	<circle style="fill:#082856;" cx="343.103" cy="327.979" r="20.929"/>
</g>
<path d="M179.87,327.948c0,11.571-9.366,20.937-20.929,20.937c-11.563,0-20.929-9.366-20.929-20.937"/>
<path d="M364.032,327.948c0,11.571-9.366,20.937-20.921,20.937c-11.563,0-20.929-9.366-20.929-20.937"/>
<path style="fill:#8ED6D6;" d="M6.57,79.195c-24.096,24.631,22.977,39.952,62.133,78.218c39.125,38.29,55.485,85.031,79.581,60.416
	c24.072-24.615,11.886-75.618-27.246-113.892C81.897,65.654,30.649,54.579,6.57,79.195z"/>
<path style="fill:#DD4389;" d="M99.549,118.579C68.561,88.269,30.035,75.099,3.34,83.117
	c-15.675,22.433,28.357,38.109,65.363,74.295c30.287,29.649,46.939,64.197,64.102,66.938
	C148.086,197.821,134.806,153.064,99.549,118.579z"/>
<path style="fill:#9B1B61;" d="M83.795,134.333c25.316,24.773,47.805,54.894,48.018,79.691l0.992,10.327
	c15.281-26.522,2.001-71.278-33.256-105.771C68.561,88.269,30.035,75.099,3.34,83.117"/>
<path style="fill:#8ED6D6;" d="M495.474,79.195c24.103,24.631-22.977,39.952-62.125,78.218
	c-39.117,38.29-55.485,85.031-79.581,60.416c-24.072-24.615-11.886-75.618,27.238-113.892
	C420.155,65.654,471.402,54.579,495.474,79.195z"/>
<path style="fill:#DD4389;" d="M402.495,118.579c30.988-30.31,69.522-43.481,96.217-35.462
	c15.675,22.433-28.357,38.109-65.363,74.295c-30.287,29.649-46.939,64.197-64.102,66.938
	C353.965,197.821,367.238,153.064,402.495,118.579z"/>
<path style="fill:#9B1B61;" d="M418.249,134.333c-25.316,24.773-47.797,54.894-48.018,79.691l-0.985,10.327
	c-15.281-26.522-2.009-71.278,33.248-105.771c30.988-30.31,69.522-43.481,96.217-35.462"/>
<path style="fill:#B7257C;" d="M295.913,350.594c0,12.737-20.102,32.122-44.883,32.122c-24.797,0-44.883-19.385-44.883-32.122
	c0-12.737,20.086-11.524,44.883-11.524C275.811,339.07,295.913,337.849,295.913,350.594z"/>
<path style="fill:#9B1B61;" d="M295.913,350.594c0,12.737-20.102,32.122-44.883,32.122c-24.797,0-44.883-19.385-44.883-32.122
	c0-12.737,20.086,3.568,44.883,3.568C275.811,354.162,295.913,337.849,295.913,350.594z"/>
<path style="fill:#EBF0F2;" d="M251.022,411.286c-10.067,0-19.692-0.37-27.569-0.985v6.152c0,8.381,6.207,15.187,14.596,15.187
	c5.971,0,10.799-3.489,13.281-8.523c2.473,5.033,6.861,8.523,12.839,8.523c8.365,0,14.431-6.798,14.431-15.187v-6.152
	C270.714,410.915,261.089,411.286,251.022,411.286z"/>
<g>
</g>
<g>
</g>
<g>
</g>
<g>
</g>
<g>
</g>
<g>
</g>
<g>
</g>
<g>
</g>
<g>
</g>
<g>
</g>
<g>
</g>
<g>
</g>
<g>
</g>
<g>
</g>
<g>
</g>
</svg>
