<?xml version="1.0" encoding="iso-8859-1"?>
<!-- Generator: Adobe Illustrator 19.0.0, SVG Export Plug-In . SVG Version: 6.00 Build 0)  -->
<svg version="1.1" id="Layer_1" xmlns="http://www.w3.org/2000/svg" xmlns:xlink="http://www.w3.org/1999/xlink" x="0px" y="0px"
	 viewBox="0 0 480.209 480.209" style="enable-background:new 0 0 480.209 480.209;" xml:space="preserve">
<ellipse style="fill:#CCE2DD;" cx="237.348" cy="223.973" rx="233.677" ry="139.815"/>
<path style="fill:#0C3C75;" d="M473.096,303.577c0,94.767-104.314,121.368-232.991,121.368S7.105,398.344,7.105,303.577
	c0-94.783,104.322-171.615,232.999-171.615S473.096,208.786,473.096,303.577z"/>
<path style="fill:#082856;" d="M473.096,303.577c0,94.767-104.314,121.368-232.991,121.368S7.105,398.344,7.105,303.577
	c0-94.783,104.322-147.787,232.999-147.787S473.096,208.786,473.096,303.577z"/>
<path d="M473.096,303.577c0,94.767-104.314,121.368-232.991,121.368S7.105,398.344,7.105,303.577
	c0-94.783,104.322-43.26,232.999-43.26S473.096,208.786,473.096,303.577z"/>
<g>
	<circle style="fill:#CCE2DD;" cx="148.023" cy="285.397" r="20.929"/>
	<circle style="fill:#CCE2DD;" cx="332.186" cy="285.397" r="20.929"/>
</g>
<path style="fill:#DDD7B3;" d="M45.395,351.035c-14.761,0-29.294-6.955-38.376-19.921c-12.304-17.613-8.011-41.952,9.586-54.28
	c14.801-10.327,35.273-6.727,45.623,8.058c8.759,12.587,5.687,29.924-6.861,38.691c-3.545,2.473-8.468,1.615-10.973-1.953
	c-2.481-3.568-1.615-8.476,1.953-10.973c5.419-3.781,6.751-11.311,2.962-16.754c-5.372-7.664-15.99-9.523-23.678-4.167
	c-10.468,7.341-13.036,21.843-5.711,32.335c9.799,13.982,29.16,17.384,43.158,7.633c8.901-6.231,14.848-15.557,16.738-26.262
	c1.89-10.705-0.496-21.52-6.727-30.429c-2.489-3.553-1.623-8.476,1.938-10.973c3.568-2.489,8.468-1.631,10.965,1.938
	c8.649,12.351,11.973,27.341,9.35,42.197c-2.639,14.848-10.878,27.782-23.229,36.431C63.977,348.294,54.642,351.035,45.395,351.035z
	"/>
<path style="fill:#F2EAC7;" d="M16.605,276.835c-9.744,6.829-15.242,17.353-16.258,28.373c0.607,6.506,2.686,12.958,6.68,18.692
	c9.082,12.965,23.615,19.921,38.376,19.921c9.248,0,18.574-2.741,26.719-8.413c12.351-8.649,20.59-21.583,23.229-36.431
	c0.347-2.001,0.575-4.001,0.717-5.986c-0.599-10.327-3.978-20.307-10.059-29.003c-2.489-3.568-7.389-4.427-10.965-1.938
	c-1.056,0.74-1.796,1.725-2.363,2.796c0.165,0.307,0.213,0.662,0.425,0.953c5.514,7.893,7.838,17.29,7.018,26.782
	c0.331,3.584,0.362,7.215-0.284,10.862c-1.89,10.705-7.838,20.031-16.738,26.262c-13.997,9.752-33.359,6.357-43.158-7.633
	c-3.623-5.183-4.805-11.351-3.836-17.14c-1.229-8.428,2.127-17.219,9.547-22.418c7.688-5.356,18.306-3.49,23.678,4.167
	c2.221,3.182,2.639,7.073,1.552,10.508c1.528,4.892-0.126,10.382-4.513,13.462c-1.063,0.74-1.804,1.725-2.371,2.796
	c0.165,0.307,0.205,0.646,0.417,0.953c2.497,3.568,7.42,4.427,10.973,1.953c6.601-4.616,10.5-11.618,11.508-19.031
	c-0.536-4.34-1.977-8.617-4.647-12.446C51.878,270.116,31.406,266.516,16.605,276.835z"/>
<path style="fill:#DDD7B3;" d="M434.814,351.035c14.761,0,29.294-6.955,38.376-19.921c12.304-17.613,8.011-41.952-9.586-54.28
	c-14.801-10.327-35.273-6.727-45.623,8.058c-8.759,12.587-5.679,29.924,6.861,38.691c3.537,2.473,8.468,1.615,10.973-1.953
	c2.481-3.568,1.615-8.476-1.953-10.973c-5.419-3.781-6.751-11.311-2.962-16.754c5.364-7.664,15.99-9.523,23.678-4.167
	c10.476,7.341,13.036,21.843,5.711,32.335c-9.799,13.982-29.168,17.384-43.158,7.633c-8.909-6.231-14.856-15.557-16.746-26.262
	s0.496-21.52,6.727-30.429c2.497-3.553,1.631-8.476-1.93-10.973c-3.576-2.489-8.476-1.631-10.973,1.938
	c-8.649,12.351-11.965,27.341-9.342,42.197c2.631,14.848,10.878,27.782,23.229,36.431
	C416.241,348.294,425.567,351.035,434.814,351.035z"/>
<path style="fill:#F2EAC7;" d="M463.604,276.835c9.744,6.829,15.242,17.353,16.258,28.373c-0.607,6.506-2.678,12.958-6.68,18.692
	c-9.082,12.965-23.615,19.921-38.376,19.921c-9.248,0-18.566-2.741-26.719-8.413c-12.351-8.649-20.598-21.583-23.229-36.431
	c-0.354-2.001-0.575-4.001-0.717-5.986c0.599-10.327,3.978-20.307,10.051-29.003c2.489-3.568,7.389-4.427,10.973-1.938
	c1.055,0.74,1.796,1.725,2.363,2.796c-0.165,0.307-0.213,0.662-0.433,0.953c-5.514,7.893-7.83,17.29-7.01,26.782
	c-0.331,3.584-0.362,7.215,0.284,10.862c1.89,10.705,7.838,20.031,16.746,26.262c13.982,9.752,33.351,6.357,43.158-7.633
	c3.623-5.183,4.805-11.351,3.836-17.14c1.229-8.428-2.127-17.219-9.547-22.418c-7.688-5.356-18.314-3.49-23.678,4.167
	c-2.221,3.182-2.639,7.073-1.552,10.508c-1.528,4.892,0.126,10.382,4.513,13.462c1.063,0.74,1.804,1.725,2.371,2.796
	c-0.165,0.307-0.205,0.646-0.418,0.953c-2.497,3.568-7.428,4.427-10.973,1.953c-6.601-4.616-10.508-11.618-11.508-19.031
	c0.536-4.34,1.977-8.617,4.647-12.446C428.332,270.116,448.804,266.516,463.604,276.835z"/>
<g>
	<ellipse style="fill:#CCE2DD;" cx="237.348" cy="161.131" rx="135.247" ry="53.004"/>
	<circle style="fill:#CCE2DD;" cx="97.052" cy="171.788" r="18.054"/>
	<circle style="fill:#CCE2DD;" cx="377.675" cy="171.788" r="18.046"/>
	<circle style="fill:#CCE2DD;" cx="45.041" cy="149.142" r="17.723"/>
	<circle style="fill:#CCE2DD;" cx="91.633" cy="127.48" r="40.7"/>
	<circle style="fill:#CCE2DD;" cx="150.702" cy="107.788" r="27.569"/>
	<circle style="fill:#CCE2DD;" cx="218.333" cy="96.619" r="41.354"/>
	<circle style="fill:#CCE2DD;" cx="290.533" cy="113.696" r="40.046"/>
	<circle style="fill:#CCE2DD;" cx="346.325" cy="94.697" r="18.377"/>
	<circle style="fill:#CCE2DD;" cx="387.009" cy="139.296" r="35.446"/>
	<circle style="fill:#CCE2DD;" cx="365.978" cy="110.372" r="22.315"/>
	<circle style="fill:#CCE2DD;" cx="424.44" cy="150.465" r="21.662"/>
	<circle style="fill:#CCE2DD;" cx="37.817" cy="177.373" r="26.254"/>
</g>
<g>
</g>
<g>
</g>
<g>
</g>
<g>
</g>
<g>
</g>
<g>
</g>
<g>
</g>
<g>
</g>
<g>
</g>
<g>
</g>
<g>
</g>
<g>
</g>
<g>
</g>
<g>
</g>
<g>
</g>
</svg>
