<?xml version="1.0" encoding="iso-8859-1"?>
<!-- Generator: Adobe Illustrator 19.0.0, SVG Export Plug-In . SVG Version: 6.00 Build 0)  -->
<svg version="1.1" id="Layer_1" xmlns="http://www.w3.org/2000/svg" xmlns:xlink="http://www.w3.org/1999/xlink" x="0px" y="0px"
	 viewBox="0 0 465.999 465.999" style="enable-background:new 0 0 465.999 465.999;" xml:space="preserve">
<path style="fill:#FFC533;" d="M465.999,273.306c0,94.767-104.322,121.368-232.999,121.368S0,368.073,0,273.306
	c0-94.783,104.322-171.615,232.999-171.615S465.999,178.523,465.999,273.306z"/>
<path style="fill:#FFB031;" d="M465.999,273.306c0,94.767-104.322,121.368-232.999,121.368S0,368.073,0,273.306
	c0-94.783,104.322-147.787,232.999-147.787S465.999,178.523,465.999,273.306z"/>
<path style="fill:#FF912E;" d="M465.999,273.306c0,94.767-104.322,121.368-232.999,121.368S0,368.073,0,273.306
	c0-94.783,104.322-43.26,232.999-43.26S465.999,178.523,465.999,273.306z"/>
<ellipse style="fill:#FF4817;" cx="232.999" cy="297.125" rx="84.189" ry="18.708"/>
<path style="fill:#D33213;" d="M317.188,297.125c0,10.335-37.691,18.708-84.189,18.708s-84.189-8.365-84.189-18.708
	c0-10.327,37.691,3.954,84.189,3.954S317.188,286.799,317.188,297.125z"/>
<g>
	<circle style="fill:#082856;" cx="140.918" cy="255.134" r="20.929"/>
	<circle style="fill:#082856;" cx="325.081" cy="255.134" r="20.929"/>
</g>
<path d="M161.847,255.149c0,11.571-9.366,20.937-20.921,20.937c-11.571,0-20.937-9.366-20.937-20.937"/>
<path d="M346.017,255.149c0,11.571-9.366,20.937-20.921,20.937c-11.571,0-20.937-9.366-20.937-20.937"/>
<path style="fill:#FFC533;" d="M248.092,86.418c0,8.342-6.751,29.538-15.092,29.538s-15.092-21.197-15.092-29.538
	s6.751-15.092,15.092-15.092C241.341,71.326,248.092,78.076,248.092,86.418z"/>
<g>
</g>
<g>
</g>
<g>
</g>
<g>
</g>
<g>
</g>
<g>
</g>
<g>
</g>
<g>
</g>
<g>
</g>
<g>
</g>
<g>
</g>
<g>
</g>
<g>
</g>
<g>
</g>
<g>
</g>
</svg>
