<?xml version="1.0" encoding="iso-8859-1"?>
<!-- Generator: Adobe Illustrator 19.0.0, SVG Export Plug-In . SVG Version: 6.00 Build 0)  -->
<svg version="1.1" id="Layer_1" xmlns="http://www.w3.org/2000/svg" xmlns:xlink="http://www.w3.org/1999/xlink" x="0px" y="0px"
	 viewBox="0 0 485.63 485.63" style="enable-background:new 0 0 485.63 485.63;" xml:space="preserve">
<path style="fill:#F25595;" d="M5.822,212.805c17.66,29.586,44.505-12.012,91.506-40.078c47.017-28.034,96.382-31.909,78.738-61.495
	c-17.644-29.554-70.065-30.815-117.075-2.773C11.99,136.533-11.822,183.243,5.822,212.805z"/>
<path style="fill:#DD4389;" d="M67.672,132.981c-37.218,22.213-59.802,56.107-58.88,83.952c17.676,20.89,44.095-17.66,88.537-44.197
	c36.399-21.709,74.059-28.971,81.093-44.859C156.681,106.301,110.026,107.719,67.672,132.981z"/>
<path style="fill:#F25595;" d="M479.808,212.805c-17.644,29.586-44.505-12.012-91.506-40.078
	c-47.002-28.034-96.382-31.909-78.738-61.495c17.644-29.554,70.065-30.815,117.075-2.773
	C473.64,136.533,497.452,183.243,479.808,212.805z"/>
<path style="fill:#DD4389;" d="M417.974,132.981c37.218,22.213,59.786,56.107,58.864,83.952
	c-17.676,20.89-44.079-17.66-88.537-44.197c-36.384-21.709-74.059-28.971-81.077-44.859
	C328.965,106.301,375.604,107.719,417.974,132.981z"/>
<path style="fill:#FF80BA;" d="M475.814,276.041c0,94.767-104.314,121.368-232.992,121.368S9.823,370.809,9.823,276.041
	c0-94.783,104.322-171.615,232.999-171.615S475.814,181.258,475.814,276.041z"/>
<path style="fill:#F25595;" d="M475.814,276.041c0,94.767-104.314,121.368-232.992,121.368S9.823,370.809,9.823,276.041
	c0-94.783,104.322-147.787,232.999-147.787S475.814,181.258,475.814,276.041z"/>
<path style="fill:#DD4389;" d="M475.814,276.041c0,94.767-104.314,121.368-232.992,121.368S9.823,370.809,9.823,276.041
	c0-94.783,104.322-43.26,232.999-43.26S475.814,181.258,475.814,276.041z"/>
<g>
	<circle style="fill:#082856;" cx="150.742" cy="257.885" r="20.929"/>
	<circle style="fill:#082856;" cx="334.896" cy="257.885" r="20.929"/>
</g>
<path d="M171.671,257.885c0,11.571-9.366,20.937-20.929,20.937s-20.929-9.366-20.929-20.937"/>
<path d="M355.833,257.885c0,11.571-9.366,20.937-20.921,20.937c-11.563,0-20.929-9.366-20.929-20.937"/>
<path style="fill:#E276B7;" d="M166.44,308.62c0-31.059,34.186-39.786,76.383-39.786c42.181,0,76.383,8.72,76.383,39.786
	c0,31.074-34.202,56.281-76.383,56.281C200.626,364.901,166.44,339.703,166.44,308.62z"/>
<path style="fill:#F28FC5;" d="M166.44,308.62c0-31.059,34.186-39.786,76.383-39.786c42.181,0,76.383,8.72,76.383,39.786
	c0,31.074-34.202,48.459-76.383,48.459C200.626,357.087,166.44,339.703,166.44,308.62z"/>
<path style="fill:#FFA4D2;" d="M166.44,308.62c0-31.059,34.186-39.786,76.383-39.786c42.181,0,76.383,8.72,76.383,39.786
	c0,31.074-34.202,14.202-76.383,14.202C200.626,322.822,166.44,339.703,166.44,308.62z"/>
<g>
	<circle style="fill:#DD4389;" cx="272.984" cy="314.575" r="6.861"/>
	<circle style="fill:#DD4389;" cx="212.638" cy="314.575" r="6.861"/>
</g>
<g>
	<path style="fill:#BA2A79;" d="M266.146,314.575c0-3.781,3.08-6.861,6.877-6.861c3.781,0,6.845,3.08,6.845,6.861"/>
	<path style="fill:#BA2A79;" d="M205.778,314.575c0-3.781,3.064-6.861,6.861-6.861c3.781,0,6.861,3.08,6.861,6.861"/>
</g>
<g>
</g>
<g>
</g>
<g>
</g>
<g>
</g>
<g>
</g>
<g>
</g>
<g>
</g>
<g>
</g>
<g>
</g>
<g>
</g>
<g>
</g>
<g>
</g>
<g>
</g>
<g>
</g>
<g>
</g>
</svg>
