<?xml version="1.0" encoding="iso-8859-1"?>
<!-- Generator: Adobe Illustrator 19.0.0, SVG Export Plug-In . SVG Version: 6.00 Build 0)  -->
<svg version="1.1" id="Layer_1" xmlns="http://www.w3.org/2000/svg" xmlns:xlink="http://www.w3.org/1999/xlink" x="0px" y="0px"
	 viewBox="0 0 465.999 465.999" style="enable-background:new 0 0 465.999 465.999;" xml:space="preserve">
<path style="fill:#C6BF9D;" d="M115.247,116.72c10.429,17.172-3.938,44.969-32.106,62.078s-55.162,55.296-65.583,38.124
	C7.129,199.751-3.387,99.816,24.781,82.708C52.949,65.615,104.818,99.556,115.247,116.72z"/>
<path style="fill:#DB602A;" d="M81.227,140.784c10.429,17.172,30.082,20.905,1.914,38.014s-55.162,55.296-65.583,38.124
	C7.129,199.751-3.387,99.816,24.781,82.708C52.949,65.615,70.798,123.613,81.227,140.784z"/>
<path style="fill:#C4491E;" d="M24.781,82.708c28.168-17.093,46.017,40.905,56.446,58.077c10.429,17.172,30.082,20.905,1.914,38.014
	"/>
<path style="fill:#C6BF9D;" d="M350.759,116.72c-10.429,17.172,3.938,44.969,32.106,62.078s55.162,55.296,65.583,38.124
	c10.429-17.172,20.945-117.106-7.223-134.215C413.058,65.615,361.188,99.556,350.759,116.72z"/>
<path style="fill:#DB602A;" d="M384.772,140.784c-10.421,17.172-30.074,20.905-1.906,38.014s55.162,55.296,65.583,38.124
	c10.429-17.172,20.945-117.106-7.223-134.215C413.058,65.615,395.209,123.613,384.772,140.784z"/>
<path style="fill:#C4491E;" d="M441.226,82.708c-28.168-17.093-46.017,40.905-56.454,58.077
	c-10.421,17.172-30.074,20.905-1.906,38.014"/>
<path style="fill:#EFE9CE;" d="M465.999,258.71c0,94.767-104.314,121.368-232.992,121.368S0,353.477,0,258.71
	C0,163.927,104.322,87.095,232.999,87.095S465.999,163.919,465.999,258.71z"/>
<path style="fill:#DDD7B3;" d="M465.999,258.71c0,94.767-104.314,121.368-232.992,121.368S0,353.477,0,258.71
	c0-94.783,104.322-147.787,232.999-147.787S465.999,163.919,465.999,258.71z"/>
<path style="fill:#C6BF9D;" d="M465.999,258.71c0,94.767-104.314,121.368-232.992,121.368S0,353.477,0,258.71
	c0-94.783,104.322-43.26,232.999-43.26S465.999,163.919,465.999,258.71z"/>
<g>
	<circle style="fill:#082856;" cx="140.918" cy="201.169" r="20.929"/>
	<circle style="fill:#082856;" cx="325.081" cy="201.169" r="20.929"/>
</g>
<path d="M161.847,201.169c0,11.571-9.366,20.937-20.929,20.937s-20.929-9.366-20.929-20.937"/>
<path d="M346.01,201.169c0,11.571-9.366,20.937-20.921,20.937c-11.563,0-20.929-9.366-20.929-20.937"/>
<path style="fill:#B23610;" d="M84.039,306.751c0-60.597,66.694-77.603,148.945-77.603c82.267,0,148.976,16.998,148.976,77.603
	c0,60.581-66.71,109.71-148.976,109.71C150.733,416.461,84.039,367.34,84.039,306.751z"/>
<path style="fill:#C4491E;" d="M84.039,306.751c0-60.597,66.694-77.603,148.945-77.603c82.267,0,148.976,16.998,148.976,77.603
	c0,60.581-66.71,94.476-148.976,94.476C150.733,401.227,84.039,367.34,84.039,306.751z"/>
<path style="fill:#DB602A;" d="M84.039,306.751c0-60.597,66.694-77.603,148.945-77.603c82.267,0,148.976,16.998,148.976,77.603
	c0,60.581-66.71,27.648-148.976,27.648C150.733,334.399,84.039,367.34,84.039,306.751z"/>
<g>
	<path style="fill:#C4491E;" d="M278.489,318.338c0-7.389,5.979-13.367,13.383-13.367c7.389,0,13.359,5.986,13.359,13.367
		c0,7.412-5.979,13.383-13.359,13.383C284.467,331.721,278.489,325.75,278.489,318.338z"/>
	<path style="fill:#C4491E;" d="M160.752,318.338c0-7.389,5.979-13.367,13.367-13.367c7.404,0,13.383,5.986,13.383,13.367
		c0,7.412-5.979,13.383-13.383,13.383C166.723,331.721,160.752,325.75,160.752,318.338z"/>
</g>
<g>
	<path style="fill:#B23610;" d="M278.489,318.338c0-7.389,5.979-13.367,13.383-13.367c7.389,0,13.359,5.986,13.359,13.367"/>
	<path style="fill:#B23610;" d="M160.752,318.338c0-7.389,5.979-13.367,13.367-13.367c7.404,0,13.383,5.986,13.383,13.367"/>
</g>
<path style="fill:#E2BB5A;" d="M167.03,119.446c0,16.321-0.433,29.538-16.738,29.538c-16.313,0-42.338-13.217-42.338-29.538
	c0-16.305,13.217-69.908,29.538-69.908S167.03,103.14,167.03,119.446z"/>
<path style="fill:#CCA142;" d="M137.492,49.538c16.313,0,29.538,53.602,29.538,69.908c0,16.321-0.433,29.538-16.738,29.538"/>
<path style="fill:#E2BB5A;" d="M298.969,119.446c0,16.321,0.425,29.538,16.738,29.538c16.305,0,42.338-13.217,42.338-29.538
	c0-16.305-13.225-69.908-29.538-69.908C312.186,49.538,298.969,103.14,298.969,119.446z"/>
<path style="fill:#CCA142;" d="M328.507,49.538c-16.321,0-29.538,53.602-29.538,69.908c0,16.321,0.425,29.538,16.738,29.538"/>
<g>
</g>
<g>
</g>
<g>
</g>
<g>
</g>
<g>
</g>
<g>
</g>
<g>
</g>
<g>
</g>
<g>
</g>
<g>
</g>
<g>
</g>
<g>
</g>
<g>
</g>
<g>
</g>
<g>
</g>
</svg>
