<?xml version="1.0" encoding="iso-8859-1"?>
<!-- Generator: Adobe Illustrator 19.0.0, SVG Export Plug-In . SVG Version: 6.00 Build 0)  -->
<svg version="1.1" id="Layer_1" xmlns="http://www.w3.org/2000/svg" xmlns:xlink="http://www.w3.org/1999/xlink" x="0px" y="0px"
	 viewBox="0 0 480.807 480.807" style="enable-background:new 0 0 480.807 480.807;" xml:space="preserve">
<path style="fill:#C6BD8B;" d="M473.403,277.631c0,94.767-104.314,121.368-232.992,121.368S7.404,372.398,7.404,277.631
	c0-94.783,104.322-171.615,232.999-171.615S473.403,182.84,473.403,277.631z"/>
<path style="fill:#B5AD74;" d="M473.403,277.631c0,94.767-104.314,121.368-232.992,121.368S7.404,372.398,7.404,277.631
	c0-94.783,104.322-147.787,232.999-147.787S473.403,182.84,473.403,277.631z"/>
<path style="fill:#9E945A;" d="M473.403,277.631c0,94.767-104.314,121.368-232.992,121.368S7.404,372.398,7.404,277.631
	c0-94.783,104.322-43.26,232.999-43.26S473.403,182.84,473.403,277.631z"/>
<g>
	<circle style="fill:#082856;" cx="148.322" cy="259.474" r="20.929"/>
	<circle style="fill:#082856;" cx="332.485" cy="259.474" r="20.929"/>
</g>
<path d="M169.251,259.474c0,11.571-9.366,20.937-20.929,20.937c-11.563,0-20.929-9.366-20.929-20.937"/>
<path d="M353.414,259.474c0,11.571-9.366,20.937-20.921,20.937c-11.563,0-20.929-9.366-20.929-20.937"/>
<g>
	<ellipse style="fill:#9E945A;" cx="51.358" cy="378.432" rx="31.508" ry="71.365"/>
	<ellipse style="fill:#9E945A;" cx="98.619" cy="378.432" rx="31.508" ry="71.365"/>
	<ellipse style="fill:#9E945A;" cx="145.881" cy="378.432" rx="31.508" ry="71.365"/>
	<ellipse style="fill:#9E945A;" cx="193.142" cy="378.432" rx="31.508" ry="71.365"/>
	<ellipse style="fill:#9E945A;" cx="240.404" cy="378.432" rx="31.508" ry="71.365"/>
	<ellipse style="fill:#9E945A;" cx="287.665" cy="378.432" rx="31.508" ry="71.365"/>
	<ellipse style="fill:#9E945A;" cx="334.927" cy="378.432" rx="31.508" ry="71.365"/>
	<ellipse style="fill:#9E945A;" cx="382.188" cy="378.432" rx="31.508" ry="71.365"/>
	<ellipse style="fill:#9E945A;" cx="429.45" cy="378.432" rx="31.508" ry="71.365"/>
	<ellipse style="fill:#9E945A;" cx="32.981" cy="325.814" rx="32.981" ry="96.004"/>
	<ellipse style="fill:#9E945A;" cx="447.827" cy="325.814" rx="32.981" ry="96.004"/>
</g>
<rect x="212.31" y="274.606" transform="matrix(-0.7072 0.707 -0.707 -0.7072 624.3417 346.7674)" style="fill:#FCD827;" width="56.115" height="56.115"/>
<polygon style="fill:#E0A624;" points="280.096,302.64 240.404,342.324 200.72,302.64 240.404,311.659 "/>
<path style="fill:#B51063;" d="M234.307,182.351c0,0,11.815-42.016-59.077-66.631s-11.815-67.938,23.631-43.323
	c0,0-12.43-8.381-16.746-22.646c-5.246-17.384,58.1-37.415,71.885,14.769c0,0-10.287-13.659-4.931-22.646
	c6.569-10.988,34.115-8.704,47.923,10.185c18.716,25.6,8.208,51.846-17.392,61.692S234.307,182.351,234.307,182.351z"/>
<path style="fill:#CE1D7E;" d="M249.068,41.874c-1.465,2.473-1.709,5.278-1.355,8.074c-20.708-33.091-70.27-15.675-65.599-0.197
	c4.317,14.265,16.746,22.646,16.746,22.646c-35.446-24.615-94.523,18.708-23.631,43.323c0.173,0.063,0.347,0.142,0.52,0.197
	c14.375,0.803,30.184,0.165,46.702-2.213c35.572-5.136,65.922-17.03,83.74-31.122c1.15-9.507-1.552-20.063-9.2-30.523
	C283.183,33.17,255.638,30.886,249.068,41.874z"/>
<g>
	<path style="fill:#F27EC3;" d="M200.499,81.354c0,4.214-10.768,0.244-23.142,0.244c-12.375,0-21.662,3.97-21.662-0.244
		c0-4.214,10.027-7.633,22.402-7.633C190.472,73.721,200.499,77.139,200.499,81.354z"/>
	<path style="fill:#F27EC3;" d="M227.793,43.072c-0.016,3.458-7.688,0.126-16.51,0.063c-8.838-0.063-15.494,3.151-15.478-0.307
		c0.024-3.474,7.215-6.231,16.037-6.168C220.688,36.723,227.824,39.598,227.793,43.072z"/>
	<path style="fill:#F27EC3;" d="M278.993,47.38c-0.016,3.726-5.199,0.165-11.169,0.126c-5.986-0.047-10.5,3.434-10.476-0.291
		c0.016-3.71,4.899-6.695,10.878-6.664C274.204,40.598,279.024,43.662,278.993,47.38z"/>
</g>
<g>
</g>
<g>
</g>
<g>
</g>
<g>
</g>
<g>
</g>
<g>
</g>
<g>
</g>
<g>
</g>
<g>
</g>
<g>
</g>
<g>
</g>
<g>
</g>
<g>
</g>
<g>
</g>
<g>
</g>
</svg>
