<?xml version="1.0" encoding="iso-8859-1"?>
<!-- Generator: Adobe Illustrator 19.0.0, SVG Export Plug-In . SVG Version: 6.00 Build 0)  -->
<svg xmlns="http://www.w3.org/2000/svg" xmlns:xlink="http://www.w3.org/1999/xlink" version="1.1" id="Layer_1" x="0px" y="0px" viewBox="0 0 512 512" style="enable-background:new 0 0 512 512;" xml:space="preserve">
<path style="fill:#F9C5C5;" d="M416.801,229.576v97.304c0,34.518-17.243,65.671-44.32,84.314  c-23.284,16.031-36.838,42.805-36.838,71.074V512H172.668v-84.722c-25.154-31.027-38.876-69.746-38.876-109.688V127.757  c0-7.702,3.114-14.662,8.162-19.71c5.037-5.048,11.997-8.162,19.699-8.162c15.394,0,27.871,12.478,27.871,27.871V71.324  c0-7.702,3.114-14.662,8.162-19.71c5.037-5.048,12.008-8.162,19.699-8.162c15.394,0,27.871,12.478,27.871,27.871V27.861  c0-7.692,3.114-14.652,8.162-19.699C258.456,3.114,265.416,0,273.118,0c15.394,0,27.861,12.478,27.861,27.861v35.103  c0-7.702,3.125-14.662,8.162-19.71c5.048-5.048,12.018-8.162,19.71-8.162c15.394,0,27.861,12.478,27.861,27.871v166.612  c0-16.585,13.46-30.035,30.045-30.035c8.298,0,15.812,3.365,21.246,8.799C413.436,213.775,416.801,221.278,416.801,229.576z"/>
<g>
	<path style="fill:#E5A1A1;" d="M342.007,317.454c0,0-39.775,150.696-169.339,173.812v-63.988   c-25.154-31.027-38.876-69.746-38.876-109.688V215.666l150.09,46.63L342.007,317.454z"/>
	<path style="fill:#E5A1A1;" d="M366.96,180.787c43.562,5.599-168.26,55.613-233.168,55.519V127.757   c0-7.702,3.114-14.662,8.162-19.71c5.037-5.048,11.997-8.162,19.699-8.162c15.394,0,27.871,12.478,27.871,27.871V71.324   c0-7.702,3.114-14.662,8.162-19.71c5.037-5.048,12.008-8.162,19.699-8.162c15.394,0,27.871,12.478,27.871,27.871V27.861   C245.257,27.861,255.791,166.497,366.96,180.787z"/>
	<path style="fill:#E5A1A1;" d="M300.989,62.178c0,0,28.215,76.421,63.551,89.678c35.336,13.255-54.01,39.903-54.01,39.903   l-9.405-36.052"/>
	<path style="fill:#E5A1A1;" d="M408.002,208.341c0,0-51.28,24.841-51.28,84.074s-25.813-80.281-25.813-80.281l25.802-13.094v30.536   c0-16.585,13.46-30.035,30.045-30.035C395.054,199.541,402.568,202.906,408.002,208.341z"/>
</g>
<path style="fill:#FA496E;" d="M416.363,207.766c0.031,4.316-0.272,8.622-0.909,12.896c-1.463-4.703-4.055-8.925-7.451-12.321  c-5.434-5.434-12.948-8.799-21.246-8.799c-1.954,0-3.877,0.188-5.727,0.554c-13.857,2.665-24.318,14.85-24.318,29.481v73.164  l-14.704,14.714l-86.216,86.216c0,0-0.01-0.01-0.021-0.021l-86.195-86.195l-23.221-23.231l-9.155-9.144l-3.417-3.417l-10.649-10.659  l-3.365-3.365c-6.96-6.95-12.426-14.808-16.428-23.211c-5.424-11.381-8.141-23.733-8.141-36.085c0-0.188,0-0.387,0.01-0.575  c0.136-21.267,8.329-42.481,24.559-58.711c4.347-4.347,9.05-8.11,14.014-11.297c16.752-10.785,36.503-14.986,55.607-12.635  c0.042,0,0.084,0.01,0.125,0.01c17.86,2.236,35.124,10.21,48.835,23.921l6.897,6.897l10.524,10.534c0.01,0.01,0.021,0.01,0.021,0.01  l17.442-17.442c8.183-8.193,17.651-14.338,27.746-18.424c17.766-7.211,37.496-8.068,55.732-2.581  c12.844,3.846,24.956,10.858,35.103,21.005l0.01,0.01C408.034,165.285,416.216,186.499,416.363,207.766z"/>
<g>
	<path style="fill:#E23760;" d="M255.791,403.67c0,0,60.571-77.846,100.92-152.138v51.207l-14.704,14.714L255.791,403.67z"/>
	<path style="fill:#E23760;" d="M416.363,207.766c0.031,4.316-0.272,8.622-0.909,12.896c-1.463-4.703-4.055-8.925-7.451-12.321   c-5.434-5.434-12.948-8.799-21.246-8.799c-1.954,0-3.877,0.188-5.727,0.554c7.503-19.553,11.746-37.214,10.795-51.03   C408.034,165.285,416.216,186.499,416.363,207.766z"/>
	<path style="fill:#E23760;" d="M142.811,182.35c-29.982,40.861-5.027,93.584,28.979,137.319l-2.215-2.215l-23.221-23.231   l-9.155-9.144l-3.417-3.417l-10.649-10.659l-3.365-3.365c-6.96-6.95-12.426-14.808-16.428-23.21   c-5.424-11.381-8.141-23.733-8.141-36.085c0-0.188,0-0.387,0.01-0.575c0.136-21.267,8.329-42.481,24.559-58.711   c4.347-4.347,9.05-8.11,14.014-11.297c16.752-10.785,36.504-14.986,55.607-12.635c0.042,0,0.084,0.01,0.125,0.01   c17.86,2.236,35.124,10.21,48.835,23.921l6.897,6.897l10.524,10.534C254.506,165.703,185.919,123.608,142.811,182.35z"/>
</g>
<g>
</g>
<g>
</g>
<g>
</g>
<g>
</g>
<g>
</g>
<g>
</g>
<g>
</g>
<g>
</g>
<g>
</g>
<g>
</g>
<g>
</g>
<g>
</g>
<g>
</g>
<g>
</g>
<g>
</g>
</svg>
