<?xml version="1.0" encoding="iso-8859-1"?>
<!-- Generator: Adobe Illustrator 19.0.0, SVG Export Plug-In . SVG Version: 6.00 Build 0)  -->
<svg xmlns="http://www.w3.org/2000/svg" xmlns:xlink="http://www.w3.org/1999/xlink" version="1.1" id="Layer_1" x="0px" y="0px" viewBox="0 0 512 512" style="enable-background:new 0 0 512 512;" xml:space="preserve">
<path style="fill:#A67EFF;" d="M215.205,292.523c-13.15-13.14-30.375-19.709-47.601-19.709c-16.678,0-33.366,6.164-46.344,18.483  c-26.381-25.042-68.071-24.647-93.944,1.227c-13.14,13.14-19.709,30.365-19.709,47.591c0,16.668,6.154,33.336,18.452,46.313  l-0.03,0.041l1.288,1.288l77.277,77.277c9.206,9.196,24.13,9.196,33.326,0l77.287-77.277l1.288-1.288l-0.041-0.041  C241.474,360.045,241.069,318.386,215.205,292.523z M43.204,310.468h156.114c4.197,0,7.604,3.407,7.604,7.604  c0,4.208-3.407,7.604-7.604,7.604H43.204c-4.208,0-7.604-3.396-7.604-7.604C35.6,313.874,38.996,310.468,43.204,310.468z   M126.523,451.12h-10.524c-4.197,0-7.604-3.407-7.604-7.604c0-4.197,3.407-7.604,7.604-7.604h10.524  c4.197,0,7.604,3.407,7.604,7.604C134.127,447.715,130.72,451.12,126.523,451.12z M158.997,419.762H83.525  c-4.208,0-7.604-3.407-7.604-7.604c0-4.197,3.396-7.604,7.604-7.604h75.472c4.197,0,7.604,3.407,7.604,7.604  C166.601,416.356,163.194,419.762,158.997,419.762z M185.874,388.404H56.637c-4.197,0-7.604-3.407-7.604-7.604  c0-4.197,3.407-7.604,7.604-7.604h129.237c4.208,0,7.604,3.407,7.604,7.604C193.478,384.997,190.082,388.404,185.874,388.404z   M208.615,357.044H33.896c-4.197,0-7.604-3.407-7.604-7.604c0-4.208,3.407-7.604,7.604-7.604h174.719  c4.208,0,7.604,3.396,7.604,7.604C216.219,353.638,212.823,357.044,208.615,357.044z"/>
<path style="fill:#C8B7F9;" d="M216.442,386.436l0.03,0.03l-78.564,78.564c-8.679,8.679-22.437,9.175-31.693,1.48  c3.599-5.13,6.945-10.27,10.047-15.39h10.26c4.197,0,7.604-3.407,7.604-7.604c0-4.197-3.407-7.604-7.604-7.604h-1.764  c2.798-5.414,5.333-10.808,7.634-16.151h26.604c4.197,0,7.604-3.407,7.604-7.604c0-4.197-3.407-7.604-7.604-7.604h-20.642  c1.926-5.455,3.619-10.838,5.11-16.151h42.41c4.208,0,7.604-3.407,7.604-7.604c0-4.197-3.396-7.604-7.604-7.604h-38.669  c1.176-5.505,2.139-10.889,2.9-16.151h58.51c4.208,0,7.604-3.407,7.604-7.604c0-4.208-3.396-7.604-7.604-7.604h-56.736  c0.477-5.586,0.75-10.98,0.872-16.161h46.567c4.197,0,7.604-3.396,7.604-7.604c0-4.197-3.407-7.604-7.604-7.604H152.64  c-0.517-14.154-2.139-26.097-3.772-35.019c6.114-1.754,12.42-2.636,18.726-2.636c17.226,0,34.451,6.57,47.591,19.709  C241.059,318.386,241.454,360.045,216.442,386.436z"/>
<path style="fill:#A67EFF;" d="M484.7,292.523c-13.15-13.14-30.375-19.709-47.601-19.709c-16.678,0-33.366,6.164-46.344,18.483  c-26.381-25.042-68.071-24.647-93.944,1.227c-13.14,13.14-19.709,30.365-19.709,47.591c0,16.668,6.154,33.336,18.452,46.313  l-0.03,0.041l1.288,1.288l77.277,77.277c9.206,9.196,24.13,9.196,33.326,0l77.287-77.277l1.288-1.288l-0.041-0.041  C510.969,360.045,510.563,318.386,484.7,292.523z M312.698,310.468h156.114c4.197,0,7.604,3.407,7.604,7.604  c0,4.208-3.407,7.604-7.604,7.604H312.698c-4.208,0-7.604-3.396-7.604-7.604C305.094,313.874,308.491,310.468,312.698,310.468z   M396.017,451.12h-10.524c-4.197,0-7.604-3.407-7.604-7.604c0-4.197,3.407-7.604,7.604-7.604h10.524  c4.197,0,7.604,3.407,7.604,7.604C403.621,447.715,400.215,451.12,396.017,451.12z M428.491,419.762h-75.472  c-4.208,0-7.604-3.407-7.604-7.604c0-4.197,3.396-7.604,7.604-7.604h75.472c4.197,0,7.604,3.407,7.604,7.604  C436.095,416.356,432.689,419.762,428.491,419.762z M455.369,388.404H326.132c-4.197,0-7.604-3.407-7.604-7.604  c0-4.197,3.407-7.604,7.604-7.604h129.237c4.208,0,7.604,3.407,7.604,7.604C462.973,384.997,459.576,388.404,455.369,388.404z   M478.11,357.044H303.391c-4.197,0-7.604-3.407-7.604-7.604c0-4.208,3.407-7.604,7.604-7.604H478.11  c4.208,0,7.604,3.396,7.604,7.604C485.714,353.638,482.317,357.044,478.11,357.044z"/>
<path style="fill:#C8B7F9;" d="M485.937,386.436l0.03,0.03l-78.564,78.564c-8.679,8.679-22.437,9.175-31.693,1.48  c3.599-5.13,6.945-10.27,10.047-15.39h10.26c4.197,0,7.604-3.407,7.604-7.604c0-4.197-3.407-7.604-7.604-7.604h-1.764  c2.798-5.414,5.333-10.808,7.634-16.151h26.604c4.197,0,7.604-3.407,7.604-7.604c0-4.197-3.407-7.604-7.604-7.604h-20.642  c1.926-5.455,3.619-10.838,5.11-16.151h42.41c4.208,0,7.604-3.407,7.604-7.604c0-4.197-3.396-7.604-7.604-7.604H416.7  c1.176-5.505,2.139-10.889,2.9-16.151h58.51c4.208,0,7.604-3.407,7.604-7.604c0-4.208-3.396-7.604-7.604-7.604h-56.736  c0.477-5.586,0.75-10.98,0.872-16.161h46.567c4.197,0,7.604-3.396,7.604-7.604c0-4.197-3.407-7.604-7.604-7.604h-46.678  c-0.517-14.154-2.139-26.097-3.772-35.019c6.114-1.754,12.42-2.636,18.726-2.636c17.225,0,34.451,6.57,47.591,19.709  C510.553,318.386,510.949,360.045,485.937,386.436z"/>
<path style="fill:#FFDD00;" d="M512,128.239c0-40.717-23.886-78.056-60.851-95.126c-3.814-1.761-8.333-0.097-10.091,3.716  c-1.761,3.812-0.098,8.33,3.715,10.091c31.6,14.593,52.019,46.512,52.019,81.319v166.634c-2.056-2.703-4.296-5.29-6.736-7.73  c-14.146-14.146-32.958-21.937-52.968-21.937c-7.037,0-14.044,0.986-20.84,2.936c-9.237,2.675-17.937,7.158-25.499,13.105  c-13.419-10.592-29.945-16.233-47.261-16.038c-19.665,0.235-38.156,8.025-52.065,21.934c-12.412,12.413-19.928,28.418-21.585,45.671  h-27.688c-1.665-17.253-9.183-33.282-21.572-45.671c-13.911-13.91-32.402-21.7-52.068-21.935  c-17.254-0.191-33.835,5.446-47.251,16.037c-13.416-10.592-29.909-16.228-47.252-16.037c-19.666,0.235-38.158,8.025-52.067,21.935  c-2.438,2.438-4.677,5.025-6.732,7.727V128.239c0-34.807,20.418-66.726,52.018-81.319c3.813-1.761,5.476-6.279,3.715-10.092  c-1.759-3.812-6.275-5.477-10.091-3.716C23.886,50.183,0,87.522,0,128.239v212.239c0,0.169,0.014,0.335,0.025,0.501  c0.209,18.663,7.224,36.342,19.917,50.042c0.216,0.289,0.453,0.563,0.711,0.821l78.564,78.564c6.076,6.077,14.058,9.115,22.04,9.115  c7.983,0,15.965-3.039,22.042-9.115l78.565-78.566c0.259-0.26,0.495-0.533,0.709-0.818c11.086-11.964,17.835-26.961,19.512-42.998  h27.828c1.684,16.046,8.455,31.071,19.525,43.018c0.212,0.281,0.444,0.549,0.697,0.801l78.566,78.565  c0.714,0.714,1.454,1.383,2.145,1.948c5.826,4.843,12.872,7.236,19.898,7.235c7.983,0,15.938-3.09,22.033-9.186l78.564-78.564  c0.251-0.251,0.484-0.519,0.696-0.8c12.698-13.7,19.718-31.376,19.934-50.036c0.012-0.175,0.026-0.35,0.026-0.529V128.239H512z   M210.938,381.198c-0.148,0.156-0.287,0.316-0.419,0.482l-77.971,77.972c-6.224,6.223-16.353,6.224-22.577,0L32.001,381.68  c-0.132-0.165-0.273-0.325-0.42-0.482c-10.747-11.334-16.559-26.187-16.369-41.824c0.192-15.665,6.401-30.396,17.482-41.477  c11.086-11.087,25.822-17.294,41.495-17.482c15.61-0.209,30.501,5.636,41.835,16.395c2.935,2.786,7.537,2.786,10.471,0  c11.334-10.76,26.239-16.592,41.835-16.395c15.672,0.188,30.409,6.395,41.495,17.482c11.081,11.082,17.29,25.811,17.481,41.477  C227.497,355.011,221.684,369.864,210.938,381.198z M480.418,381.203c-0.142,0.148-0.275,0.302-0.401,0.459l-77.99,77.989  c-5.868,5.865-15.09,6.301-21.508,0.967c-0.353-0.288-0.712-0.613-1.065-0.967l-77.278-77.278l-0.713-0.712  c-0.127-0.157-0.261-0.31-0.401-0.459c-10.554-11.138-16.368-25.732-16.368-41.093c0-15.948,6.209-30.94,17.483-42.214  c11.085-11.085,25.82-17.293,41.492-17.48c0.244-0.003,0.487-0.004,0.731-0.004c15.375,0,29.95,5.807,41.111,16.397  c2.933,2.784,7.536,2.785,10.47-0.002c6.997-6.646,15.238-11.376,24.479-14.051c5.415-1.553,11.009-2.341,16.627-2.341  c15.948,0,30.941,6.209,42.216,17.483c11.084,11.079,17.292,25.809,17.483,41.474C496.978,355.009,491.164,369.864,480.418,381.203z  "/>
<g>
</g>
<g>
</g>
<g>
</g>
<g>
</g>
<g>
</g>
<g>
</g>
<g>
</g>
<g>
</g>
<g>
</g>
<g>
</g>
<g>
</g>
<g>
</g>
<g>
</g>
<g>
</g>
<g>
</g>
</svg>
