<?xml version="1.0" encoding="iso-8859-1"?>
<!-- Generator: Adobe Illustrator 19.0.0, SVG Export Plug-In . SVG Version: 6.00 Build 0)  -->
<svg xmlns="http://www.w3.org/2000/svg" xmlns:xlink="http://www.w3.org/1999/xlink" version="1.1" id="Layer_1" x="0px" y="0px" viewBox="0 0 512 512" style="enable-background:new 0 0 512 512;" xml:space="preserve">
<path style="fill:#00DCAB;" d="M404.63,373.596h14.56c34.059,0,61.661,27.612,61.661,61.671V512H289.683v-76.733  c0-34.059,27.601-61.671,61.661-61.671h14.559"/>
<path style="fill:#4D4D4D;" d="M511.393,196.726v57.453c0,54.219-43.951,98.169-98.169,98.169h-59.054  c-54.219,0-98.169-43.951-98.169-98.169v-58.835c0-70.673,57.411-127.937,128.147-127.696  C454.725,67.889,511.393,126.158,511.393,196.726z"/>
<path style="fill:#FF8522;" d="M256,196.517v237.107H0.607V195.135c0-70.673,57.411-127.937,128.147-127.696  C199.332,67.679,256,125.949,256,196.517z"/>
<path style="fill:#E06222;" d="M154.251,433.624H0.607V195.135c0-70.673,57.411-127.937,128.147-127.696  c0,0-80.909,29.559-80.909,113.168C47.844,252.023,130.23,393.797,154.251,433.624z"/>
<path style="fill:#333333;" d="M387.685,352.348h-33.515c-54.219,0-98.169-43.951-98.169-98.169v-58.835  c0-70.673,57.411-127.937,128.147-127.696c0,0-100.053,39.565-69.532,129.581C332.21,249.113,363.945,310.041,387.685,352.348z"/>
<path style="fill:#FFDD00;" d="M223.891,435.266v76.733H32.723v-76.733c0-34.059,27.601-61.671,61.661-61.671h67.847  C196.289,373.595,223.891,401.207,223.891,435.266z"/>
<path style="fill:#FFBC00;" d="M136.157,379.122v132.878h-15.7V379.122c0-2.156,0.869-4.103,2.271-5.527  c1.424-1.434,3.402-2.324,5.579-2.324s4.145,0.89,5.568,2.324C135.288,375.019,136.157,376.965,136.157,379.122z"/>
<g>
	<path style="fill:#F9C5C5;" d="M219.732,210.877c-0.848,26.712-4.553,54.041-10.184,81.862   c-6.908,34.133-36.624,58.793-71.447,59.504c-6.531,0.136-13.063,0.136-19.594,0c-34.823-0.712-64.539-25.372-71.447-59.504   c-5.631-27.821-9.336-55.15-10.184-81.862c-0.722-22.535,15.878-41.899,38.278-44.39c35.431-3.946,70.872-3.946,106.302,0   C203.854,168.978,220.454,188.342,219.732,210.877z"/>
	<path style="fill:#F9C5C5;" d="M147.667,351.438v22.159c0,10.697-8.667,19.364-19.364,19.364c-2.439,0-4.773-0.45-6.919-1.277   c-2.564-0.973-4.867-2.491-6.772-4.396c-3.506-3.496-5.673-8.342-5.673-13.691v-22.159H147.667z"/>
	<path style="fill:#F9C5C5;" d="M436.846,166.483c-35.433-3.944-70.864-3.944-106.297,0c-22.399,2.493-39.007,21.864-38.285,44.39   c0.856,26.718,4.559,54.043,10.19,81.865c6.908,34.136,36.625,58.796,71.445,59.511c6.532,0.134,13.066,0.134,19.598,0   c34.82-0.715,64.537-25.375,71.445-59.511c5.63-27.822,9.332-55.147,10.19-81.865C475.852,188.347,459.244,168.975,436.846,166.483   z"/>
	<path style="fill:#F9C5C5;" d="M404.63,351.438v22.159c0,10.694-8.67,19.364-19.364,19.364l0,0   c-10.694,0-19.364-8.67-19.364-19.364v-22.159"/>
</g>
<g>
	<path style="fill:#E5A1A1;" d="M219.732,210.877c0,0-28.282-31.788-82.71-27.601s-69.773,36.98-69.773,67.679   c0,30.71,7.536,79.946,51.257,101.288c-34.823-0.712-64.539-25.372-71.447-59.504c-5.631-27.821-9.336-55.15-10.184-81.862   c-0.722-22.535,15.878-41.899,38.278-44.39c35.431-3.946,70.872-3.946,106.302,0C203.854,168.978,220.454,188.342,219.732,210.877z   "/>
	<path style="fill:#E5A1A1;" d="M147.667,351.438v13.963c0,0-30.061,2.324-26.282,26.282c-2.564-0.973-4.867-2.491-6.772-4.396   c-3.506-3.496-5.673-8.342-5.673-13.691v-22.159H147.667z"/>
	<path style="fill:#E5A1A1;" d="M404.63,351.438v13.963c0,0-30.061,2.324-26.282,26.282c-2.564-0.973-4.867-2.491-6.772-4.396   c-3.506-3.496-5.673-8.342-5.673-13.691v-22.159H404.63z"/>
</g>
<g>
	<path style="fill:#4D4D4D;" d="M88.529,243.806c-4.335,0-7.85-3.515-7.85-7.85v-10.467c0-4.335,3.515-7.85,7.85-7.85   s7.85,3.515,7.85,7.85v10.467C96.38,240.292,92.865,243.806,88.529,243.806z"/>
	<path style="fill:#4D4D4D;" d="M168.078,243.806c-4.335,0-7.85-3.515-7.85-7.85v-10.467c0-4.335,3.515-7.85,7.85-7.85   c4.335,0,7.85,3.515,7.85,7.85v10.467C175.928,240.292,172.413,243.806,168.078,243.806z"/>
	<path style="fill:#4D4D4D;" d="M343.922,243.806c-4.335,0-7.85-3.515-7.85-7.85v-10.467c0-4.335,3.515-7.85,7.85-7.85   s7.85,3.515,7.85,7.85v10.467C351.772,240.292,348.258,243.806,343.922,243.806z"/>
	<path style="fill:#4D4D4D;" d="M423.471,243.806c-4.335,0-7.85-3.515-7.85-7.85v-10.467c0-4.335,3.515-7.85,7.85-7.85   c4.335,0,7.85,3.515,7.85,7.85v10.467C431.321,240.292,427.806,243.806,423.471,243.806z"/>
</g>
<path style="fill:#E6E6E6;" d="M171.218,268.404c0,6.762-1.56,13.157-4.354,18.84c-6.971,14.256-21.625,24.074-38.56,24.074  s-31.589-9.818-38.56-24.074c-2.795-5.684-4.354-12.079-4.354-18.84H171.218z"/>
<path style="fill:#E5A1A1;" d="M475.125,210.877c0,0-28.282-31.788-82.71-27.601s-69.772,36.98-69.772,67.679  c0,30.71,7.536,79.946,51.257,101.288c-34.823-0.712-64.539-25.372-71.447-59.504c-5.631-27.821-9.337-55.15-10.184-81.862  c-0.722-22.535,15.878-41.899,38.278-44.39c35.431-3.946,70.872-3.946,106.302,0C459.247,168.978,475.847,188.342,475.125,210.877z"/>
<path style="fill:#E6E6E6;" d="M426.611,268.404c0,6.762-1.56,13.157-4.354,18.84c-6.971,14.256-21.625,24.074-38.56,24.074  c-16.935,0-31.589-9.818-38.56-24.074c-2.795-5.684-4.354-12.079-4.354-18.84H426.611z"/>
<path style="fill:#4D4D4D;" d="M422.257,287.244c-6.971,14.256-21.625,24.074-38.56,24.074c-16.935,0-31.589-9.818-38.56-24.074  H422.257z"/>
<g>
	<rect x="444.415" y="475.649" style="fill:#F9C5C5;" width="36.435" height="36.352"/>
	<rect x="289.683" y="475.649" style="fill:#F9C5C5;" width="36.435" height="36.352"/>
</g>
<path style="fill:#FA496E;" d="M309.314,9.702c-12.936-12.936-33.908-12.936-46.841,0l-0.667,0.667l-6.222,6.222l-6.222-6.222  l-0.667-0.667c-12.936-12.936-33.908-12.936-46.841,0c-6.411,6.408-9.645,14.789-9.7,23.191c-0.002,0.075-0.002,0.153-0.002,0.228  c0,4.877,1.072,9.756,3.215,14.252c1.578,3.317,3.74,6.424,6.486,9.17l1.329,1.329l5.56,5.56l3.613,3.613l9.172,9.172l9.172,9.172  l9.165,9.165l15.718,15.718l15.718-15.718l9.165-9.165l9.172-9.172l9.172-9.172l9.172-9.172l1.329-1.329  c2.747-2.747,4.908-5.855,6.483-9.172c2.18-4.566,3.25-9.526,3.213-14.48C318.954,24.492,315.72,16.108,309.314,9.702z"/>
<path style="fill:#4D4D4D;" d="M166.864,287.244c-6.971,14.256-21.625,24.074-38.56,24.074s-31.589-9.818-38.56-24.074H166.864z"/>
<g>
	<polygon style="fill:#E5A1A1;" points="397.759,247.576 383.697,233.514 369.634,247.576  "/>
	<polygon style="fill:#E5A1A1;" points="142.366,247.576 128.304,233.514 114.241,247.576  "/>
</g>
<g>
</g>
<g>
</g>
<g>
</g>
<g>
</g>
<g>
</g>
<g>
</g>
<g>
</g>
<g>
</g>
<g>
</g>
<g>
</g>
<g>
</g>
<g>
</g>
<g>
</g>
<g>
</g>
<g>
</g>
</svg>
