<?xml version="1.0" encoding="iso-8859-1"?>
<!-- Generator: Adobe Illustrator 19.0.0, SVG Export Plug-In . SVG Version: 6.00 Build 0)  -->
<svg xmlns="http://www.w3.org/2000/svg" xmlns:xlink="http://www.w3.org/1999/xlink" version="1.1" id="Layer_1" x="0px" y="0px" viewBox="0 0 512 512" style="enable-background:new 0 0 512 512;" xml:space="preserve">
<path style="fill:#CDF3F9;" d="M472.861,72.628c-52.21-52.21-136.851-52.21-189.05,0l-2.692,2.692l-25.11,25.11l-25.11-25.11  l-2.692-2.692c-52.21-52.21-136.851-52.21-189.05,0C13.283,98.492,0.23,132.317,0.01,166.226C0,166.53,0,166.844,0,167.148  c0,19.683,4.326,39.377,12.979,57.521c6.369,13.388,15.095,25.927,26.178,37.01l5.363,5.363l22.438,22.438l14.582,14.582  l37.02,37.02l37.02,37.02l36.989,36.989l63.439,63.439l63.439-63.439l36.989-36.989l37.02-37.02l37.02-37.02l37.02-37.02  l5.363-5.363c11.083-11.083,19.809-23.633,26.168-37.02c8.799-18.426,13.115-38.445,12.969-58.442  C511.766,132.317,498.714,98.481,472.861,72.628z"/>
<path style="fill:#52DBFF;" d="M393.457,341.082l-37.02,37.02c-25.728-25.738-61.25-41.671-100.428-41.671  s-74.7,15.933-100.428,41.671l-37.02-37.02c35.208-35.218,83.824-57.028,137.448-57.028S358.249,305.863,393.457,341.082z"/>
<path style="fill:#FA496E;" d="M511.997,166.215c0.147,19.998-4.169,40.016-12.969,58.442  c-63.188-60.517-148.835-97.736-243.019-97.736s-179.842,37.219-243.03,97.746C4.326,206.525,0,186.831,0,167.148  c0-0.304,0-0.618,0.01-0.922c63.68-52.293,143.576-85.532,230.889-90.906l25.11,25.11l25.11-25.11  C368.431,80.694,448.317,113.933,511.997,166.215z"/>
<path style="fill:#FF8522;" d="M499.028,224.658c-6.359,13.388-15.085,25.937-26.168,37.02l-5.363,5.363  c-54.179-54.179-128.994-87.742-211.488-87.742S98.699,212.862,44.521,267.041l-5.363-5.363  c-11.083-11.083-19.809-23.622-26.178-37.01c63.188-60.527,148.845-97.746,243.03-97.746S435.841,164.141,499.028,224.658z"/>
<path style="fill:#FFDD00;" d="M467.497,267.041l-37.02,37.02c-44.699-44.699-106.409-72.385-174.468-72.385  s-129.77,27.687-174.468,72.385L66.959,289.48l-22.438-22.438c54.179-54.179,128.994-87.742,211.488-87.742  S413.318,212.862,467.497,267.041z"/>
<path style="fill:#00DCAB;" d="M430.477,304.061l-37.02,37.02c-35.208-35.218-83.824-57.028-137.448-57.028  s-102.24,21.81-137.448,57.028l-37.02-37.02c44.699-44.699,106.409-72.385,174.468-72.385S385.778,259.363,430.477,304.061z"/>
<path style="fill:#A67EFF;" d="M356.437,378.102l-36.989,36.989c-16.237-16.237-38.665-26.283-63.439-26.283  s-47.202,10.046-63.439,26.283l-36.989-36.989c25.728-25.738,61.25-41.671,100.428-41.671S330.709,352.364,356.437,378.102z"/>
<g>
</g>
<g>
</g>
<g>
</g>
<g>
</g>
<g>
</g>
<g>
</g>
<g>
</g>
<g>
</g>
<g>
</g>
<g>
</g>
<g>
</g>
<g>
</g>
<g>
</g>
<g>
</g>
<g>
</g>
</svg>
