<?xml version="1.0" encoding="iso-8859-1"?>
<!-- Generator: Adobe Illustrator 19.0.0, SVG Export Plug-In . SVG Version: 6.00 Build 0)  -->
<svg xmlns="http://www.w3.org/2000/svg" xmlns:xlink="http://www.w3.org/1999/xlink" version="1.1" id="Layer_1" x="0px" y="0px" viewBox="0 0 512 512" style="enable-background:new 0 0 512 512;" xml:space="preserve">
<path style="fill:#E5A1A1;" d="M298.506,209.616c-0.733-0.105-1.476-0.157-2.229-0.157c-11.849,0-21.457,13.586-21.457,30.354  s9.609,40.821,21.457,40.821c3.308,0,6.437-1.874,9.242-4.94h168.915c2.805,3.067,5.935,4.94,9.242,4.94  c11.849,0,21.457-24.053,21.457-40.821s-9.609-30.354-21.457-30.354c-0.754,0-1.497,0.052-2.229,0.157"/>
<path style="fill:#F9C5C5;" d="M299.438,172.108c-3.2,38.867,0.911,79.196,9.295,120.629c6.908,34.136,36.625,58.796,71.445,59.511  c6.532,0.134,13.066,0.134,19.598,0c34.82-0.715,64.537-25.375,71.445-59.511c8.385-41.433,12.494-81.762,9.295-120.629  l-64.372-39.057l-92.109,15.7L299.438,172.108z"/>
<path style="fill:#FA496E;" d="M410.911,373.596h14.559c34.059,0,61.661,27.612,61.661,61.671V512H295.963v-76.733  c0-34.059,27.601-61.671,61.661-61.671h14.559"/>
<path style="fill:#F9C5C5;" d="M410.911,351.438v22.159c0,10.694-8.67,19.364-19.364,19.364l0,0  c-10.694,0-19.364-8.67-19.364-19.364v-22.159"/>
<path style="fill:#E5A1A1;" d="M410.911,351.438v13.963c0,0-30.061,2.324-26.282,26.282c-2.564-0.973-4.867-2.491-6.772-4.396  c-3.506-3.496-5.673-8.342-5.673-13.691v-22.159H410.911z"/>
<g>
	<path style="fill:#4D4D4D;" d="M350.202,243.806c-4.335,0-7.85-3.515-7.85-7.85v-10.467c0-4.335,3.515-7.85,7.85-7.85   s7.85,3.515,7.85,7.85v10.467C358.053,240.292,354.538,243.806,350.202,243.806z"/>
	<path style="fill:#4D4D4D;" d="M429.751,243.806c-4.335,0-7.85-3.515-7.85-7.85v-10.467c0-4.335,3.515-7.85,7.85-7.85   s7.85,3.515,7.85,7.85v10.467C437.601,240.292,434.086,243.806,429.751,243.806z"/>
</g>
<g>
	<path style="fill:#E5A1A1;" d="M481.406,210.875c0,0-28.282-31.788-82.71-27.601s-69.773,36.98-69.773,67.679   c0,30.71,7.536,79.946,51.257,101.288c-34.823-0.712-64.539-25.372-71.447-59.504c-5.631-27.821-9.337-55.15-10.184-81.862   c-0.722-22.535-2.146-82.661,20.253-85.153c35.431-3.946,106.92,7.568,142.35,11.514   C483.551,139.728,482.128,188.34,481.406,210.875z"/>
	<path style="fill:#E5A1A1;" d="M30.553,209.616c-0.733-0.105-1.476-0.157-2.229-0.157c-11.849,0-21.457,13.586-21.457,30.354   s9.609,40.821,21.457,40.821c3.308,0,6.437-1.874,9.242-4.94h168.915c2.805,3.067,5.935,4.94,9.242,4.94   c11.849,0,21.457-24.053,21.457-40.821s-9.609-30.354-21.457-30.354c-0.754,0-1.497,0.052-2.229,0.157"/>
</g>
<path style="fill:#F9C5C5;" d="M31.485,172.108c-3.2,38.867,0.911,79.196,9.295,120.629c6.908,34.136,36.625,58.796,71.445,59.511  c6.532,0.134,13.066,0.134,19.598,0c34.82-0.715,64.537-25.375,71.445-59.511c8.385-41.433,12.494-81.762,9.295-120.629  l-64.372-39.057l-92.109,15.7L31.485,172.108z"/>
<path style="fill:#E5A1A1;" d="M213.452,210.875c0,0-28.282-31.788-82.71-27.601s-69.773,36.98-69.773,67.679  c0,30.71,7.536,79.946,51.257,101.288c-34.823-0.712-64.539-25.372-71.447-59.504c-5.631-27.821-9.336-55.15-10.184-81.862  c-0.722-22.535-2.146-82.661,20.253-85.153c35.431-3.946,106.92,7.568,142.35,11.514  C215.598,139.728,214.174,188.34,213.452,210.875z"/>
<path style="fill:#E6E6E6;" d="M432.891,268.404c0,6.762-1.56,13.157-4.354,18.84c-6.971,14.256-21.625,24.074-38.56,24.074  c-16.935,0-31.589-9.818-38.56-24.074c-2.795-5.684-4.354-12.079-4.354-18.84H432.891z"/>
<path style="fill:#4D4D4D;" d="M428.537,287.244c-6.971,14.256-21.625,24.074-38.56,24.074c-16.935,0-31.589-9.818-38.56-24.074  H428.537z"/>
<g>
	<rect x="450.695" y="475.649" style="fill:#F9C5C5;" width="36.435" height="36.352"/>
	<rect x="295.963" y="475.649" style="fill:#F9C5C5;" width="36.435" height="36.352"/>
</g>
<path style="fill:#FFDD00;" d="M480.516,172.113c-7.557,3.758-15.952,5.38-24.848,5.38c-17.459,0-36.917-6.217-55.998-14.706  c-4.113-1.821-8.206-3.758-12.267-5.757c-35.022,22.923-87.964,15.083-87.964,15.083s-17.27,1.758-17.27-21.269  c0-46.892,52.104-50.869,69.804-50.869c3.622,0,5.799,0.167,5.799,0.167c4.417-7.683,12.068-15.91,24.88-17.333  c16.067-1.79,26.534,2.031,34.468,7.84c15.334,11.21,21.227,29.841,39.848,29.841c28.261,0,37.681-28.261,37.681-28.261  S520.206,152.362,480.516,172.113z"/>
<path style="fill:#FFBC00;" d="M381.603,116.303c0,22.629,8.468,36.896,18.066,46.484c-4.113-1.821-8.206-3.758-12.267-5.757  c-35.022,22.923-87.964,15.083-87.964,15.083s-17.27,1.758-17.27-21.269c0-46.892,52.104-50.869,69.804-50.869  c3.622,0,5.799,0.167,5.799,0.167c4.417-7.683,12.068-15.91,24.88-17.333c16.067-1.79,26.534,2.031,34.468,7.84  C417.117,90.649,381.603,93.674,381.603,116.303z"/>
<path style="fill:#FA496E;" d="M315.595,9.702c-12.936-12.936-33.908-12.936-46.841,0l-0.667,0.667l-6.222,6.222l-6.222-6.222  l-0.667-0.667c-12.936-12.936-33.908-12.936-46.841,0c-6.411,6.408-9.645,14.789-9.7,23.191c-0.002,0.075-0.002,0.153-0.002,0.228  c0,4.877,1.072,9.756,3.215,14.252c1.578,3.317,3.74,6.424,6.486,9.17l1.329,1.329l5.56,5.56l3.613,3.613l9.172,9.172l9.172,9.172  l9.165,9.165l15.718,15.718l15.718-15.718l9.165-9.165l9.172-9.172l9.172-9.172l9.172-9.172l1.329-1.329  c2.747-2.747,4.908-5.855,6.483-9.172c2.18-4.566,3.25-9.526,3.213-14.48C325.235,24.492,322,16.108,315.595,9.702z"/>
<polygon style="fill:#E5A1A1;" points="404.039,247.576 389.977,233.514 375.914,247.576 "/>
<path style="fill:#52DBFF;" d="M142.957,373.596h14.559c34.059,0,61.661,27.612,61.661,61.671V512H28.01v-76.733  c0-34.059,27.601-61.671,61.661-61.671h14.559"/>
<g>
	<rect x="28.01" y="475.649" style="fill:#F9C5C5;" width="36.435" height="36.352"/>
	<rect x="182.742" y="475.649" style="fill:#F9C5C5;" width="36.435" height="36.352"/>
	<path style="fill:#F9C5C5;" d="M142.957,351.438v22.159c0,10.694-8.67,19.364-19.364,19.364l0,0   c-10.694,0-19.364-8.67-19.364-19.364v-22.159"/>
</g>
<path style="fill:#E5A1A1;" d="M142.957,351.438v13.963c0,0-30.061,2.324-26.282,26.282c-2.564-0.973-4.867-2.491-6.772-4.396  c-3.506-3.496-5.673-8.342-5.673-13.691v-22.159H142.957z"/>
<g>
	<path style="fill:#4D4D4D;" d="M82.249,243.806c-4.335,0-7.85-3.515-7.85-7.85v-10.467c0-4.335,3.515-7.85,7.85-7.85   c4.335,0,7.85,3.515,7.85,7.85v10.467C90.099,240.292,86.585,243.806,82.249,243.806z"/>
	<path style="fill:#4D4D4D;" d="M161.798,243.806c-4.335,0-7.85-3.515-7.85-7.85v-10.467c0-4.335,3.515-7.85,7.85-7.85   s7.85,3.515,7.85,7.85v10.467C169.648,240.292,166.133,243.806,161.798,243.806z"/>
</g>
<g>
	<path style="fill:#C96C18;" d="M220.257,159.563c-4.825,9.577-6.981,20.254-6.72,30.982c0.157,6.312,0.136,12.665-0.052,19.06   l-39.125-56.668l-5.495,3.077c-29.098,16.297-64.581,16.297-93.679,0l-5.495-3.077l-39.125,56.668   c-0.188-6.395-0.209-12.749-0.052-19.06c0.262-10.729-1.895-21.405-6.72-30.982c-5.035-9.996-9.619-24.053-3.297-34.886   c8.206-14.078,60.823-22.305,86.907-25.571c9.713-1.214,19.531-1.214,29.245,0c26.084,3.266,78.701,11.493,86.907,25.571   C229.876,135.51,225.291,149.567,220.257,159.563z"/>
</g>
<path style="fill:#E6E6E6;" d="M164.938,268.404c0,6.762-1.56,13.157-4.354,18.84c-6.971,14.256-21.625,24.074-38.56,24.074  s-31.589-9.818-38.56-24.074c-2.795-5.684-4.354-12.079-4.354-18.84H164.938z"/>
<path style="fill:#4D4D4D;" d="M160.584,287.244c-6.971,14.256-21.625,24.074-38.56,24.074s-31.589-9.818-38.56-24.074H160.584z"/>
<polygon style="fill:#E5A1A1;" points="136.086,247.576 122.024,233.514 107.961,247.576 "/>
<g>
</g>
<g>
</g>
<g>
</g>
<g>
</g>
<g>
</g>
<g>
</g>
<g>
</g>
<g>
</g>
<g>
</g>
<g>
</g>
<g>
</g>
<g>
</g>
<g>
</g>
<g>
</g>
<g>
</g>
</svg>
