<?xml version="1.0" encoding="iso-8859-1"?>
<!-- Generator: Adobe Illustrator 19.0.0, SVG Export Plug-In . SVG Version: 6.00 Build 0)  -->
<svg xmlns="http://www.w3.org/2000/svg" xmlns:xlink="http://www.w3.org/1999/xlink" version="1.1" id="Layer_1" x="0px" y="0px" viewBox="0 0 512 512" style="enable-background:new 0 0 512 512;" xml:space="preserve">
<path style="fill:#FA496E;" d="M255.998,0.002C114.614,0.002,0,114.616,0,256s114.614,255.998,255.998,255.998  S511.997,397.384,511.997,256S397.383,0.002,255.998,0.002z M229.876,458.084c-36.668-4.714-70.31-19.22-98.227-40.794  l98.227-98.226V458.084z M282.121,319.064l98.226,98.226c-27.917,21.573-61.558,36.08-98.226,40.794V319.064z M52.245,256  c0-103.502,77.573-189.224,177.632-202.085v191.264L94.707,380.348C68.101,345.918,52.245,302.779,52.245,256z M417.29,380.348  L282.121,245.179V53.915C382.18,66.776,459.752,152.498,459.752,256C459.752,302.779,443.896,345.918,417.29,380.348z"/>
<path style="fill:#A67EFF;" d="M367.199,426.661h79.621c-46.874,52.38-115.001,85.336-190.818,85.336  s-143.944-32.956-190.808-85.336h79.631c25.077,16.405,53.979,27.428,85.054,31.42v-31.42h0.01h52.234v31.42  c31.086-3.991,59.987-15.026,85.075-31.43L367.199,426.661L367.199,426.661z"/>
<g>
	<path style="fill:#52DBFF;" d="M207.613,341.335l-75.953,75.953c4.263,3.291,8.652,6.426,13.166,9.373H65.194   c-22.047-24.618-39.382-53.53-50.625-85.326h0.01h56.435c6.437,13.918,14.42,27,23.698,39.016l39.016-39.016H207.613z"/>
	<polygon style="fill:#52DBFF;" points="282.124,341.335 282.124,426.661 229.89,426.661 229.879,426.661 229.879,341.335    229.89,341.335  "/>
	<path style="fill:#52DBFF;" d="M441,341.335h56.435c-11.243,31.796-28.578,60.708-50.615,85.326h-79.621v-0.01   c4.514-2.947,8.902-6.071,13.155-9.362l-75.953-75.953h73.874l39.016,39.016C426.58,368.335,434.563,355.253,441,341.335z"/>
</g>
<g>
	<path style="fill:#00DCAB;" d="M459.766,255.999H512c0,29.915-5.13,58.639-14.566,85.336H441   c12.037-25.966,18.756-54.878,18.756-85.336L459.766,255.999L459.766,255.999z"/>
	<polygon style="fill:#00DCAB;" points="378.275,341.335 304.401,341.335 282.124,319.069 282.124,341.335 229.89,341.335    229.879,341.335 229.879,319.069 207.623,341.335 207.613,341.335 133.728,341.335 219.075,255.999 292.938,255.999  "/>
	<path style="fill:#00DCAB;" d="M71.014,341.335H14.579h-0.01c-9.435-26.697-14.566-55.421-14.566-85.336h0.01h52.234   C52.248,286.458,58.966,315.37,71.014,341.335z"/>
</g>
<g>
	<path style="fill:#FFDD00;" d="M14.579,170.663h56.414c-12.027,25.966-18.745,54.878-18.745,85.336H0.014h-0.01   c0-29.915,5.13-58.639,14.566-85.336H14.579z"/>
	<polygon style="fill:#FFDD00;" points="292.938,255.999 219.075,255.999 229.879,245.184 229.879,170.663 229.89,170.663    282.124,170.663 282.124,245.184  "/>
	<path style="fill:#FFDD00;" d="M512,255.999h-52.234h-0.01c0-30.459-6.719-59.371-18.745-85.336h0.01h56.414   C506.87,197.36,512,226.084,512,255.999z"/>
</g>
<g>
	<polygon style="fill:#FF8522;" points="282.124,85.337 282.124,170.663 229.89,170.663 229.879,170.663 229.879,85.337    229.89,85.337  "/>
	<path style="fill:#FF8522;" d="M65.194,85.337h79.61c-31.921,20.866-57.657,50.447-73.811,85.326H14.579h-0.01   C25.812,138.867,43.147,109.954,65.194,85.337z"/>
	<path style="fill:#FF8522;" d="M497.434,170.663h-56.414h-0.01c-16.154-34.878-41.879-64.449-73.801-85.315v-0.01h79.61   C468.856,109.954,486.191,138.867,497.434,170.663z"/>
</g>
<g>
</g>
<g>
</g>
<g>
</g>
<g>
</g>
<g>
</g>
<g>
</g>
<g>
</g>
<g>
</g>
<g>
</g>
<g>
</g>
<g>
</g>
<g>
</g>
<g>
</g>
<g>
</g>
<g>
</g>
</svg>
